<?xml version="1.0" encoding="UTF-8" ?>
<!DOCTYPE svg PUBLIC "-//W3C//DTD SVG 1.1//EN" "http://www.w3.org/Graphics/SVG/1.1/DTD/svg11.dtd">
<svg width="250pt" height="250pt" viewBox="0 0 250 250" version="1.1" xmlns="http://www.w3.org/2000/svg">
<g id="#3636366e">
</g>
<g id="#1d2c34cc">
<path fill="#1d2c34" opacity="0.80" d=" M 116.53 3.30 C 116.93 3.39 117.72 3.56 118.12 3.65 L 117.78 4.35 L 116.97 4.45 L 116.28 4.08 L 116.53 3.30 Z" />
<path fill="#1d2c34" opacity="0.80" d=" M 132.88 3.66 C 133.28 3.57 134.07 3.39 134.46 3.30 L 134.72 4.07 L 134.03 4.46 L 133.21 4.36 L 132.88 3.66 Z" />
<path fill="#1d2c34" opacity="0.80" d=" M 28.65 50.59 C 47.77 25.59 76.97 8.73 108.10 4.28 L 108.20 5.41 C 81.49 9.01 56.27 22.20 37.73 41.73 C 14.29 65.90 2.02 100.22 4.30 133.77 C 4.24 135.58 4.11 137.39 4.05 139.20 C 2.92 133.86 2.93 128.40 3.00 122.97 C 3.68 96.97 12.62 71.13 28.65 50.59 Z" />
<path fill="#1d2c34" opacity="0.80" d=" M 106.80 245.67 C 107.30 245.71 108.31 245.78 108.82 245.82 L 108.85 246.45 C 108.38 246.44 107.43 246.42 106.95 246.41 L 106.80 245.67 Z" />
<path fill="#1d2c34" opacity="0.80" d=" M 116.02 246.82 C 116.53 246.98 117.56 247.31 118.07 247.48 L 117.33 248.02 L 116.29 247.69 L 116.02 246.82 Z" />
</g>
<g id="#030e14ff">
<path fill="#030e14" opacity="1.00" d=" M 118.12 3.65 C 122.94 2.71 128.06 2.68 132.88 3.66 L 133.21 4.36 C 128.09 3.86 122.91 3.87 117.78 4.35 L 118.12 3.65 Z" />
<path fill="#030e14" opacity="1.00" d=" M 145.90 5.16 L 146.82 4.79 L 147.68 5.32 L 147.69 5.99 C 147.25 5.94 146.37 5.83 145.93 5.78 L 145.90 5.16 Z" />
<path fill="#030e14" opacity="1.00" d=" M 55.97 45.09 C 57.06 42.15 60.21 41.90 62.93 41.98 C 105.30 42.07 147.68 41.92 190.05 42.05 C 195.24 41.84 199.44 46.90 199.00 51.92 C 199.00 91.64 198.99 131.37 199.01 171.09 C 199.32 175.81 194.81 180.30 190.09 180.01 C 147.03 179.98 103.96 180.01 60.90 179.99 C 56.17 180.22 51.86 175.82 52.03 171.12 C 51.93 132.06 52.06 93.00 51.97 53.95 C 52.07 51.07 51.84 47.12 55.19 45.99 C 53.95 48.10 52.93 50.44 53.09 52.95 C 53.11 92.00 53.12 131.04 53.08 170.09 C 52.64 174.44 56.42 179.17 60.94 178.90 C 103.98 178.89 147.02 178.88 190.06 178.91 C 193.50 179.34 196.27 176.52 197.69 173.71 C 198.15 170.49 197.84 167.23 197.90 163.99 C 197.90 126.64 197.88 89.29 197.92 51.94 C 198.32 48.24 195.58 45.06 192.47 43.49 C 189.70 42.82 186.82 43.16 184.01 43.09 C 143.32 43.13 102.63 43.10 61.95 43.10 C 59.75 42.95 57.79 44.01 55.97 45.09 Z" />
<path fill="#030e14" opacity="1.00" d=" M 62.39 70.42 C 74.16 70.54 85.94 70.31 97.71 70.52 L 98.36 71.06 C 98.50 79.84 98.30 88.64 98.44 97.43 C 86.43 97.60 74.41 97.43 62.39 97.52 C 62.40 88.49 62.40 79.45 62.39 70.42 M 63.76 71.57 C 64.30 79.69 63.87 87.83 64.03 95.96 C 75.00 95.95 85.97 95.97 96.94 95.95 C 96.93 87.84 96.92 79.73 96.95 71.62 C 85.88 71.45 74.82 71.55 63.76 71.57 Z" />
<path fill="#030e14" opacity="1.00" d=" M 108.31 70.52 C 120.06 70.31 131.83 70.54 143.59 70.42 C 143.55 79.46 143.58 88.49 143.57 97.53 C 131.83 97.38 120.07 97.67 108.33 97.40 L 107.60 96.98 C 107.54 88.32 107.55 79.65 107.60 71.00 L 108.31 70.52 M 109.06 71.62 C 109.08 79.73 109.07 87.84 109.07 95.94 C 120.03 95.97 130.99 95.95 141.96 95.96 C 141.96 87.90 141.96 79.83 141.96 71.77 C 131.00 71.33 120.03 71.55 109.06 71.62 Z" />
<path fill="#030e14" opacity="1.00" d=" M 152.65 70.47 L 153.50 71.10 L 154.29 71.73 C 154.20 79.80 154.27 87.86 154.18 95.93 C 165.11 95.98 176.04 95.95 186.96 95.95 C 187.12 88.17 186.68 80.36 187.27 72.59 L 188.32 72.84 C 188.76 80.94 188.44 89.07 188.38 97.19 C 176.50 97.49 164.63 97.05 152.75 97.41 C 152.72 88.43 152.90 79.45 152.65 70.47 Z" />
<path fill="#030e14" opacity="1.00" d=" M 62.39 106.66 C 74.39 106.58 86.38 106.63 98.38 106.63 C 98.40 115.87 98.42 125.12 98.37 134.36 C 86.38 134.38 74.39 134.41 62.39 134.34 C 62.39 125.11 62.40 115.89 62.39 106.66 M 63.43 108.15 C 64.38 116.31 64.38 124.67 63.43 132.83 C 74.59 132.79 85.75 132.75 96.91 132.86 C 96.95 124.61 96.93 116.36 96.93 108.12 C 85.76 108.22 74.60 108.16 63.43 108.15 Z" />
<path fill="#030e14" opacity="1.00" d=" M 107.60 106.63 C 119.36 106.66 131.12 106.54 142.88 106.67 L 143.48 107.25 C 143.72 116.27 143.50 125.31 143.57 134.33 C 131.58 134.42 119.59 134.36 107.61 134.36 C 107.55 125.12 107.57 115.87 107.60 106.63 M 109.07 108.11 C 109.08 116.36 109.06 124.61 109.08 132.86 C 120.03 132.76 130.98 132.76 141.93 132.85 C 141.98 124.61 141.97 116.36 141.94 108.11 C 130.99 108.21 120.03 108.20 109.07 108.11 Z" />
<path fill="#030e14" opacity="1.00" d=" M 153.26 107.23 L 153.96 106.65 C 165.33 106.61 176.70 106.58 188.06 106.66 C 189.89 107.89 189.18 110.16 189.13 111.99 C 188.19 118.96 189.05 125.97 189.23 132.94 C 188.93 133.29 188.33 133.98 188.03 134.32 C 176.68 134.43 165.32 134.38 153.97 134.35 C 153.69 134.00 153.14 133.30 152.86 132.95 C 152.60 125.96 152.88 118.97 152.74 111.98 C 152.89 110.41 152.41 108.65 153.26 107.23 M 154.16 108.14 C 154.27 116.38 154.27 124.61 154.16 132.85 C 165.35 132.77 176.55 132.75 187.74 132.86 C 187.68 132.48 187.56 131.72 187.50 131.34 C 188.44 124.16 188.44 116.84 187.50 109.66 C 187.56 109.27 187.68 108.51 187.74 108.13 C 176.55 108.21 165.36 108.17 154.16 108.14 Z" />
<path fill="#030e14" opacity="1.00" d=" M 62.38 143.17 C 72.55 142.25 82.81 143.02 93.02 142.73 C 94.82 142.91 97.14 142.18 98.40 143.92 C 98.40 152.31 98.41 160.70 98.39 169.10 C 96.79 170.99 94.14 170.04 92.01 170.27 C 82.14 169.98 72.22 170.79 62.39 169.81 C 62.39 160.93 62.41 152.05 62.38 143.17 M 63.62 144.13 C 64.49 152.29 63.78 160.53 64.02 168.72 C 74.98 168.70 85.93 168.63 96.88 168.76 C 96.96 160.58 96.96 152.40 96.89 144.22 C 85.80 144.25 74.71 144.43 63.62 144.13 Z" />
<path fill="#030e14" opacity="1.00" d=" M 107.48 143.46 C 112.89 142.15 118.49 142.97 124.00 142.76 C 130.53 142.94 137.11 142.32 143.61 143.19 C 143.55 152.06 143.57 160.92 143.59 169.79 C 136.44 170.74 129.19 170.04 122.00 170.25 C 117.16 170.07 112.22 170.82 107.48 169.52 C 107.64 160.83 107.64 152.14 107.48 143.46 M 109.11 144.22 C 109.05 152.40 109.04 160.58 109.12 168.76 C 120.04 168.66 130.97 168.66 141.90 168.75 C 142.22 160.55 141.47 152.30 142.40 144.12 C 131.31 144.43 120.20 144.25 109.11 144.22 Z" />
<path fill="#030e14" opacity="1.00" d=" M 152.93 143.13 C 159.92 142.34 166.98 142.94 174.00 142.76 C 179.02 142.87 184.08 142.37 189.05 143.29 C 189.26 152.10 189.63 160.98 188.83 169.77 C 181.94 170.76 174.94 170.04 168.00 170.25 C 162.98 170.13 157.90 170.64 152.92 169.77 C 152.67 160.90 152.66 152.00 152.93 143.13 M 154.20 144.21 C 154.25 152.40 154.24 160.59 154.21 168.78 C 165.28 168.40 176.39 169.17 187.45 168.36 C 186.70 160.32 186.69 152.14 187.42 144.09 C 176.35 144.46 165.27 144.25 154.20 144.21 Z" />
<path fill="#030e14" opacity="1.00" d=" M 122.73 186.62 C 125.00 186.65 127.26 186.65 129.52 186.64 C 129.75 187.97 129.96 189.31 130.12 190.66 C 130.13 198.84 130.17 207.03 129.99 215.21 C 126.43 215.15 122.86 215.01 119.36 214.36 C 122.56 214.09 125.77 213.94 128.98 213.90 C 129.00 205.16 129.01 196.41 128.97 187.67 C 126.87 187.71 124.76 187.73 122.66 187.76 C 122.55 189.42 122.46 191.09 122.37 192.75 C 120.47 192.41 118.57 192.11 116.67 191.85 L 117.25 191.35 C 118.39 191.11 119.53 190.87 120.67 190.64 C 121.35 189.30 122.03 187.95 122.73 186.62 Z" />
<path fill="#030e14" opacity="1.00" d=" M 49.31 187.08 C 53.48 186.76 57.74 186.33 61.89 187.15 C 64.65 187.64 65.69 190.58 67.15 192.61 C 70.22 191.58 73.46 190.50 76.69 191.52 C 80.55 192.73 84.51 191.56 88.43 191.57 C 95.55 191.60 102.67 191.29 109.77 191.45 L 110.34 191.93 C 106.22 192.64 102.04 192.64 97.87 192.52 C 97.81 199.69 97.83 206.85 97.84 214.01 C 100.12 213.97 102.39 213.94 104.67 213.92 C 104.67 207.72 104.14 201.46 105.23 195.31 C 108.05 201.07 106.17 207.76 106.54 213.93 C 108.78 213.90 111.03 213.85 113.28 213.84 C 113.42 214.19 113.69 214.88 113.83 215.23 C 105.35 214.67 96.79 216.03 88.39 214.29 C 91.30 214.01 94.21 213.93 97.13 213.90 C 97.19 206.76 97.16 199.62 97.17 192.48 C 95.02 192.48 92.87 192.48 90.72 192.49 C 90.11 198.79 92.00 205.52 89.39 211.50 C 88.39 205.23 88.88 198.86 88.87 192.55 C 86.69 192.50 84.52 192.46 82.34 192.42 C 82.25 198.27 81.97 204.14 82.30 209.98 C 82.20 211.95 83.87 213.17 85.04 214.49 C 82.32 214.61 79.60 214.60 76.89 214.51 C 78.53 213.21 80.80 212.12 81.16 209.83 C 81.90 205.64 81.87 201.29 81.28 197.08 C 80.17 190.20 67.78 190.08 66.78 197.07 C 66.06 202.80 65.50 209.24 69.05 214.21 C 63.96 214.82 58.85 215.31 53.72 215.19 C 52.37 215.17 51.02 215.16 49.67 215.16 C 48.59 205.85 49.29 196.43 49.31 187.08 M 50.16 187.78 C 50.19 196.51 50.20 205.23 50.15 213.96 C 52.43 213.98 54.71 213.99 56.99 214.00 C 57.00 209.99 56.95 205.97 57.05 201.96 C 57.58 202.24 58.62 202.80 59.14 203.08 C 59.19 206.71 59.20 210.33 59.18 213.96 C 61.28 213.97 63.38 213.98 65.49 214.01 C 65.33 209.53 66.78 204.37 63.60 200.60 C 66.42 197.15 66.63 190.98 62.60 188.38 C 58.56 187.24 54.30 187.73 50.16 187.78 Z" />
<path fill="#030e14" opacity="1.00" d=" M 132.08 186.96 C 137.51 186.57 142.97 186.58 148.39 187.17 C 148.70 188.35 149.01 189.54 149.33 190.72 C 153.20 190.83 157.06 191.39 160.75 192.60 C 160.81 190.67 160.89 188.74 160.99 186.81 C 163.23 186.78 165.48 186.65 167.71 186.91 C 168.87 188.01 169.60 189.45 170.50 190.76 C 172.27 190.94 174.03 191.15 175.80 191.38 C 176.30 189.83 176.80 188.29 177.31 186.75 C 179.77 186.82 182.24 186.86 184.70 186.87 C 185.15 188.50 185.58 190.14 186.02 191.77 C 188.92 191.42 191.86 190.72 194.79 191.21 C 197.41 191.88 199.24 194.05 201.10 195.87 C 201.19 196.55 201.38 197.92 201.47 198.61 C 201.37 204.30 200.76 209.96 200.32 215.64 C 193.09 217.29 185.78 213.69 178.55 216.00 C 177.50 214.96 176.80 213.64 176.56 212.19 C 176.67 206.49 177.19 200.76 176.55 195.08 C 176.07 190.96 171.21 192.30 168.37 192.53 C 168.29 190.94 168.21 189.36 168.11 187.78 C 165.98 187.74 163.86 187.71 161.73 187.68 C 161.53 196.41 162.03 205.14 161.84 213.88 C 164.78 213.93 167.72 214.08 170.66 214.29 C 164.68 215.48 158.50 215.66 152.54 214.27 C 155.41 214.09 158.28 213.96 161.16 213.87 C 161.05 208.03 161.63 202.13 160.71 196.34 C 159.84 191.42 153.40 191.33 149.68 192.69 C 146.31 193.81 146.37 197.76 145.84 200.64 C 147.92 200.74 150.01 200.85 152.10 200.96 C 150.27 202.12 148.19 203.01 146.76 204.68 C 146.23 206.65 146.09 208.70 145.73 210.71 C 145.45 212.05 145.12 213.38 144.80 214.71 C 143.03 214.94 141.27 215.17 139.51 215.37 C 138.95 215.42 137.83 215.53 137.27 215.59 C 134.85 211.02 136.26 205.61 135.84 200.66 C 135.92 198.52 135.94 196.37 135.99 194.23 C 134.66 194.13 133.34 194.03 132.01 193.94 C 131.99 193.53 131.95 192.72 131.93 192.31 C 131.93 190.52 132.00 188.74 132.08 186.96 M 133.00 187.74 C 133.01 189.47 133.01 191.19 132.98 192.92 C 134.32 192.95 135.66 192.99 137.01 193.02 C 137.00 200.01 137.00 207.00 137.01 213.99 C 139.23 213.99 141.45 213.99 143.67 214.02 C 143.85 207.10 143.87 200.16 143.65 193.23 C 145.05 193.07 146.46 192.93 147.87 192.79 C 147.82 191.14 147.81 189.48 147.83 187.83 C 142.89 187.59 137.94 187.62 133.00 187.74 M 177.52 187.72 C 177.30 194.80 177.50 201.88 177.36 208.96 C 177.40 210.61 177.24 212.38 178.21 213.83 C 180.22 214.18 182.28 213.94 184.32 214.02 C 183.95 205.25 184.44 196.49 184.26 187.73 C 182.01 187.71 179.77 187.70 177.52 187.72 M 185.34 196.33 C 184.48 200.44 184.65 204.72 185.07 208.88 C 185.64 214.75 193.96 216.25 197.93 212.87 C 200.23 210.99 199.91 207.83 200.10 205.18 C 198.09 205.19 196.09 205.19 194.10 205.20 C 193.85 207.36 193.57 209.61 192.08 211.32 C 191.71 208.85 191.58 206.36 191.56 203.87 C 194.38 203.83 197.21 203.79 200.03 203.80 C 199.90 200.12 200.65 195.24 196.87 193.06 C 193.12 190.99 186.65 191.54 185.34 196.33 Z" />
<path fill="#030e14" opacity="1.00" d=" M 120.33 196.19 C 120.82 196.16 121.80 196.09 122.29 196.06 C 121.98 201.16 123.67 206.77 121.09 211.46 C 119.70 206.49 120.51 201.28 120.33 196.19 Z" />
<path fill="#030e14" opacity="1.00" d=" M 168.58 196.60 C 168.92 196.32 169.59 195.77 169.93 195.50 C 170.31 200.76 170.47 206.08 169.74 211.32 C 169.10 210.28 168.28 209.26 168.36 207.97 C 168.30 204.19 168.02 200.35 168.58 196.60 Z" />
<path fill="#030e14" opacity="1.00" d=" M 103.53 245.04 C 104.00 245.10 104.94 245.22 105.41 245.28 L 105.43 245.91 C 104.95 245.86 104.01 245.74 103.54 245.68 L 103.53 245.04 Z" />
<path fill="#030e14" opacity="1.00" d=" M 108.82 245.82 C 109.61 245.90 111.20 246.08 111.99 246.17 L 111.96 246.70 C 111.19 246.64 109.63 246.51 108.85 246.45 L 108.82 245.82 Z" />
</g>
<g id="#0f4262ff">
<path fill="#0f4262" opacity="1.00" d=" M 108.10 4.28 C 110.82 4.16 113.55 3.96 116.28 4.08 L 116.97 4.45 C 114.05 4.81 111.12 5.07 108.20 5.41 L 108.10 4.28 Z" />
<path fill="#0f4262" opacity="1.00" d=" M 134.03 4.46 L 134.72 4.07 C 137.84 3.70 141.00 4.18 143.93 5.30 C 140.62 5.03 137.31 4.88 134.03 4.46 Z" />
<path fill="#0f4262" opacity="1.00" d=" M 144.92 5.50 L 145.34 5.25 L 145.44 5.64 C 145.31 5.60 145.05 5.53 144.92 5.50 Z" />
<path fill="#0f4262" opacity="1.00" d=" M 109.77 191.45 C 112.25 191.75 114.78 191.89 117.25 191.35 L 116.67 191.85 C 115.29 193.27 113.86 194.90 113.90 197.02 C 113.64 201.88 113.34 206.84 114.24 211.66 C 114.73 213.92 117.55 213.90 119.36 214.36 C 122.86 215.01 126.43 215.15 129.99 215.21 C 130.17 207.03 130.13 198.84 130.12 190.66 C 130.57 191.07 131.48 191.90 131.93 192.31 C 131.95 192.72 131.99 193.53 132.01 193.94 C 132.26 200.30 132.54 206.69 132.10 213.05 C 131.90 214.76 131.69 217.19 129.58 217.57 C 123.68 218.91 117.62 217.71 111.69 217.11 C 106.76 216.52 101.92 218.00 97.01 218.18 C 93.59 218.37 90.23 217.62 86.87 217.09 C 82.64 216.24 78.53 218.57 74.29 217.71 C 68.04 216.59 61.67 216.62 55.41 217.63 C 54.85 216.81 54.29 216.00 53.72 215.19 C 58.85 215.31 63.96 214.82 69.05 214.21 C 71.67 214.14 74.28 214.37 76.89 214.51 C 79.60 214.60 82.32 214.61 85.04 214.49 C 86.15 214.42 87.27 214.35 88.39 214.29 C 96.79 216.03 105.35 214.67 113.83 215.23 C 113.69 214.88 113.42 214.19 113.28 213.84 C 112.86 207.94 113.56 202.02 113.01 196.13 C 112.86 194.37 111.46 193.15 110.34 191.93 L 109.77 191.45 Z" />
<path fill="#0f4262" opacity="1.00" d=" M 106.02 245.45 C 106.22 245.51 106.60 245.62 106.80 245.67 L 106.14 245.91 L 106.02 245.45 Z" />
<path fill="#0f4262" opacity="1.00" d=" M 112.65 246.25 L 113.29 246.32 L 113.20 246.88 L 112.59 246.78 L 112.65 246.25 Z" />
</g>
<g id="#1f89caff">
<path fill="#1f89ca" opacity="1.00" d=" M 116.97 4.45 L 117.78 4.35 C 122.91 3.87 128.09 3.86 133.21 4.36 L 134.03 4.46 C 137.31 4.88 140.62 5.03 143.93 5.30 L 144.92 5.50 C 145.05 5.53 145.31 5.60 145.44 5.64 L 145.93 5.78 C 146.37 5.83 147.25 5.94 147.69 5.99 L 148.36 5.97 C 156.95 8.31 165.66 10.40 173.78 14.14 C 200.34 25.61 222.52 46.90 234.94 73.05 C 241.19 85.80 244.83 99.72 246.37 113.81 C 247.02 120.44 247.06 127.12 246.70 133.77 C 244.44 165.75 229.17 196.57 204.75 217.40 C 204.71 212.32 205.37 207.23 204.80 202.17 C 204.53 199.63 202.73 197.68 201.10 195.87 C 199.24 194.05 197.41 191.88 194.79 191.21 C 191.86 190.72 188.92 191.42 186.02 191.77 C 185.58 190.14 185.15 188.50 184.70 186.87 C 182.24 186.86 179.77 186.82 177.31 186.75 C 176.80 188.29 176.30 189.83 175.80 191.38 C 174.03 191.15 172.27 190.94 170.50 190.76 C 169.60 189.45 168.87 188.01 167.71 186.91 C 165.48 186.65 163.23 186.78 160.99 186.81 C 160.89 188.74 160.81 190.67 160.75 192.60 C 157.06 191.39 153.20 190.83 149.33 190.72 C 149.01 189.54 148.70 188.35 148.39 187.17 C 142.97 186.58 137.51 186.57 132.08 186.96 C 132.00 188.74 131.93 190.52 131.93 192.31 C 131.48 191.90 130.57 191.07 130.12 190.66 C 129.96 189.31 129.75 187.97 129.52 186.64 C 127.26 186.65 125.00 186.65 122.73 186.62 C 122.03 187.95 121.35 189.30 120.67 190.64 C 119.53 190.87 118.39 191.11 117.25 191.35 C 114.78 191.89 112.25 191.75 109.77 191.45 C 102.67 191.29 95.55 191.60 88.43 191.57 C 84.51 191.56 80.55 192.73 76.69 191.52 C 73.46 190.50 70.22 191.58 67.15 192.61 C 65.69 190.58 64.65 187.64 61.89 187.15 C 57.74 186.33 53.48 186.76 49.31 187.08 C 49.29 196.43 48.59 205.85 49.67 215.16 C 50.60 216.86 51.52 218.66 53.02 219.97 C 58.01 221.38 63.27 220.19 68.38 220.46 C 75.91 220.79 83.45 220.15 90.98 220.62 C 98.65 221.06 106.31 220.20 113.98 220.59 C 119.75 220.62 125.65 221.45 131.35 220.18 C 133.73 219.68 134.60 217.08 134.65 214.93 C 134.86 210.16 134.92 205.37 135.84 200.66 C 136.26 205.61 134.85 211.02 137.27 215.59 C 138.66 217.14 139.85 219.57 142.23 219.57 C 155.81 220.04 169.42 220.69 183.00 219.77 C 188.83 219.23 194.62 220.16 200.37 221.02 C 182.55 235.03 160.77 243.86 138.24 246.25 C 129.95 247.13 121.59 247.12 113.29 246.32 L 112.65 246.25 L 111.99 246.17 C 111.20 246.08 109.61 245.90 108.82 245.82 C 108.31 245.78 107.30 245.71 106.80 245.67 C 106.60 245.62 106.22 245.51 106.02 245.45 L 105.41 245.28 C 104.94 245.22 104.00 245.10 103.53 245.04 L 102.82 245.04 C 94.40 242.82 85.89 240.73 77.91 237.17 C 50.34 225.45 27.42 203.18 15.08 175.87 C 8.87 162.67 5.60 148.26 4.30 133.77 C 2.02 100.22 14.29 65.90 37.73 41.73 C 56.27 22.20 81.49 9.01 108.20 5.41 C 111.12 5.07 114.05 4.81 116.97 4.45 M 55.97 45.09 C 55.78 45.31 55.39 45.76 55.19 45.99 C 51.84 47.12 52.07 51.07 51.97 53.95 C 52.06 93.00 51.93 132.06 52.03 171.12 C 51.86 175.82 56.17 180.22 60.90 179.99 C 103.96 180.01 147.03 179.98 190.09 180.01 C 194.81 180.30 199.32 175.81 199.01 171.09 C 198.99 131.37 199.00 91.64 199.00 51.92 C 199.44 46.90 195.24 41.84 190.05 42.05 C 147.68 41.92 105.30 42.07 62.93 41.98 C 60.21 41.90 57.06 42.15 55.97 45.09 Z" />
<path fill="#1f89ca" opacity="1.00" d=" M 63.76 71.57 C 74.82 71.55 85.88 71.45 96.95 71.62 C 96.92 79.73 96.93 87.84 96.94 95.95 C 85.97 95.97 75.00 95.95 64.03 95.96 C 63.87 87.83 64.30 79.69 63.76 71.57 Z" />
<path fill="#1f89ca" opacity="1.00" d=" M 109.06 71.62 C 120.03 71.55 131.00 71.33 141.96 71.77 C 141.96 79.83 141.96 87.90 141.96 95.96 C 130.99 95.95 120.03 95.97 109.07 95.94 C 109.07 87.84 109.08 79.73 109.06 71.62 Z" />
<path fill="#1f89ca" opacity="1.00" d=" M 154.29 71.73 C 165.25 72.80 176.34 71.08 187.27 72.59 C 186.68 80.36 187.12 88.17 186.96 95.95 C 176.04 95.95 165.11 95.98 154.18 95.93 C 154.27 87.86 154.20 79.80 154.29 71.73 Z" />
<path fill="#1f89ca" opacity="1.00" d=" M 63.43 108.15 C 74.60 108.16 85.76 108.22 96.93 108.12 C 96.93 116.36 96.95 124.61 96.91 132.86 C 85.75 132.75 74.59 132.79 63.43 132.83 C 64.38 124.67 64.38 116.31 63.43 108.15 Z" />
<path fill="#1f89ca" opacity="1.00" d=" M 109.07 108.11 C 120.03 108.20 130.99 108.21 141.94 108.11 C 141.97 116.36 141.98 124.61 141.93 132.85 C 130.98 132.76 120.03 132.76 109.08 132.86 C 109.06 124.61 109.08 116.36 109.07 108.11 Z" />
<path fill="#1f89ca" opacity="1.00" d=" M 154.16 108.14 C 165.36 108.17 176.55 108.21 187.74 108.13 C 187.68 108.51 187.56 109.27 187.50 109.66 C 186.66 116.83 186.67 124.16 187.50 131.34 C 187.56 131.72 187.68 132.48 187.74 132.86 C 176.55 132.75 165.35 132.77 154.16 132.85 C 154.27 124.61 154.27 116.38 154.16 108.14 Z" />
<path fill="#1f89ca" opacity="1.00" d=" M 63.62 144.13 C 74.71 144.43 85.80 144.25 96.89 144.22 C 96.96 152.40 96.96 160.58 96.88 168.76 C 85.93 168.63 74.98 168.70 64.02 168.72 C 63.78 160.53 64.49 152.29 63.62 144.13 Z" />
<path fill="#1f89ca" opacity="1.00" d=" M 109.11 144.22 C 120.20 144.25 131.31 144.43 142.40 144.12 C 141.47 152.30 142.22 160.55 141.90 168.75 C 130.97 168.66 120.04 168.66 109.12 168.76 C 109.04 160.58 109.05 152.40 109.11 144.22 Z" />
<path fill="#1f89ca" opacity="1.00" d=" M 154.20 144.21 C 165.27 144.25 176.35 144.46 187.42 144.09 C 186.69 152.14 186.70 160.32 187.45 168.36 C 176.39 169.17 165.28 168.40 154.21 168.78 C 154.24 160.59 154.25 152.40 154.20 144.21 Z" />
</g>
<g id="#122f40f3">
<path fill="#122f40" opacity="0.95" d=" M 145.34 5.25 L 145.90 5.16 L 145.93 5.78 L 145.44 5.64 L 145.34 5.25 Z" />
<path fill="#122f40" opacity="0.95" d=" M 105.41 245.28 L 106.02 245.45 L 106.14 245.91 L 105.43 245.91 L 105.41 245.28 Z" />
<path fill="#122f40" opacity="0.95" d=" M 111.99 246.17 L 112.65 246.25 L 112.59 246.78 L 111.96 246.70 L 111.99 246.17 Z" />
<path fill="#122f40" opacity="0.95" d=" M 113.29 246.32 C 121.59 247.12 129.95 247.13 138.24 246.25 C 136.38 246.63 134.55 247.10 132.70 247.48 C 127.87 248.21 122.89 248.22 118.07 247.48 C 117.56 247.31 116.53 246.98 116.02 246.82 C 115.32 246.83 113.91 246.86 113.20 246.88 L 113.29 246.32 Z" />
</g>
<g id="#1d2a32d4">
<path fill="#1d2a32" opacity="0.83" d=" M 147.68 5.32 L 148.19 5.36 L 148.36 5.97 L 147.69 5.99 L 147.68 5.32 Z" />
<path fill="#1d2a32" opacity="0.83" d=" M 246.37 113.81 C 246.73 115.29 247.16 116.75 247.53 118.22 C 248.47 125.16 248.13 132.29 246.96 139.19 C 246.89 137.38 246.76 135.58 246.70 133.77 C 247.06 127.12 247.02 120.44 246.37 113.81 Z" />
<path fill="#1d2a32" opacity="0.83" d=" M 102.82 245.04 L 103.53 245.04 L 103.54 245.68 L 102.99 245.65 L 102.82 245.04 Z" />
</g>
<g id="#1d2d37cd">
<path fill="#1d2d37" opacity="0.80" d=" M 148.19 5.36 C 187.34 12.11 221.99 39.86 237.59 76.34 C 243.29 89.57 247.13 103.77 247.53 118.22 C 247.16 116.75 246.73 115.29 246.37 113.81 C 244.83 99.72 241.19 85.80 234.94 73.05 C 222.52 46.90 200.34 25.61 173.78 14.14 C 165.66 10.40 156.95 8.31 148.36 5.97 L 148.19 5.36 Z" />
</g>
<g id="#ffffffff">
<path fill="#ffffff" opacity="1.00" d=" M 55.97 45.09 C 57.79 44.01 59.75 42.95 61.95 43.10 C 102.63 43.10 143.32 43.13 184.01 43.09 C 186.82 43.16 189.70 42.82 192.47 43.49 C 195.58 45.06 198.32 48.24 197.92 51.94 C 197.88 89.29 197.90 126.64 197.90 163.99 C 197.84 167.23 198.15 170.49 197.69 173.71 C 196.27 176.52 193.50 179.34 190.06 178.91 C 147.02 178.88 103.98 178.89 60.94 178.90 C 56.42 179.17 52.64 174.44 53.08 170.09 C 53.12 131.04 53.11 92.00 53.09 52.95 C 52.93 50.44 53.95 48.10 55.19 45.99 C 55.39 45.76 55.78 45.31 55.97 45.09 M 62.39 70.42 C 62.40 79.45 62.40 88.49 62.39 97.52 C 74.41 97.43 86.43 97.60 98.44 97.43 C 98.30 88.64 98.50 79.84 98.36 71.06 L 97.71 70.52 C 85.94 70.31 74.16 70.54 62.39 70.42 M 108.31 70.52 L 107.60 71.00 C 107.55 79.65 107.54 88.32 107.60 96.98 L 108.33 97.40 C 120.07 97.67 131.83 97.38 143.57 97.53 C 143.58 88.49 143.55 79.46 143.59 70.42 C 131.83 70.54 120.06 70.31 108.31 70.52 M 152.65 70.47 C 152.90 79.45 152.72 88.43 152.75 97.41 C 159.82 98.08 166.92 97.55 174.00 97.69 C 179.10 97.40 184.30 98.33 189.33 97.37 C 189.82 88.32 189.30 79.25 189.56 70.20 C 182.39 69.53 175.19 69.96 168.00 69.85 C 162.88 69.96 157.70 69.37 152.65 70.47 M 62.39 106.66 C 62.40 115.89 62.39 125.11 62.39 134.34 C 74.39 134.41 86.38 134.38 98.37 134.36 C 98.42 125.12 98.40 115.87 98.38 106.63 C 86.38 106.63 74.39 106.58 62.39 106.66 M 107.60 106.63 C 107.57 115.87 107.55 125.12 107.61 134.36 C 119.59 134.36 131.58 134.42 143.57 134.33 C 143.50 125.31 143.72 116.27 143.48 107.25 L 142.88 106.67 C 131.12 106.54 119.36 106.66 107.60 106.63 M 153.26 107.23 C 152.41 108.65 152.89 110.41 152.74 111.98 C 152.88 118.97 152.60 125.96 152.86 132.95 C 153.14 133.30 153.69 134.00 153.97 134.35 C 165.32 134.38 176.68 134.43 188.03 134.32 C 188.33 133.98 188.93 133.29 189.23 132.94 C 189.05 125.97 188.19 118.96 189.13 111.99 C 189.18 110.16 189.89 107.89 188.06 106.66 C 176.70 106.58 165.33 106.61 153.96 106.65 L 153.26 107.23 M 62.38 143.17 C 62.41 152.05 62.39 160.93 62.39 169.81 C 72.22 170.79 82.14 169.98 92.01 170.27 C 94.14 170.04 96.79 170.99 98.39 169.10 C 98.41 160.70 98.40 152.31 98.40 143.92 C 97.14 142.18 94.82 142.91 93.02 142.73 C 82.81 143.02 72.55 142.25 62.38 143.17 M 107.48 143.46 C 107.64 152.14 107.64 160.83 107.48 169.52 C 112.22 170.82 117.16 170.07 122.00 170.25 C 129.19 170.04 136.44 170.74 143.59 169.79 C 143.57 160.92 143.55 152.06 143.61 143.19 C 137.11 142.32 130.53 142.94 124.00 142.76 C 118.49 142.97 112.89 142.15 107.48 143.46 M 152.93 143.13 C 152.66 152.00 152.67 160.90 152.92 169.77 C 157.90 170.64 162.98 170.13 168.00 170.25 C 174.94 170.04 181.94 170.76 188.83 169.77 C 189.63 160.98 189.26 152.10 189.05 143.29 C 184.08 142.37 179.02 142.87 174.00 142.76 C 166.98 142.94 159.92 142.34 152.93 143.13 Z" />
</g>
<g id="#828282ff">
<path fill="#828282" opacity="1.00" d=" M 152.65 70.47 C 157.70 69.37 162.88 69.96 168.00 69.85 C 175.19 69.96 182.39 69.53 189.56 70.20 C 189.30 79.25 189.82 88.32 189.33 97.37 C 184.30 98.33 179.10 97.40 174.00 97.69 C 166.92 97.55 159.82 98.08 152.75 97.41 C 164.63 97.05 176.50 97.49 188.38 97.19 C 188.44 89.07 188.76 80.94 188.32 72.84 C 188.27 72.38 188.17 71.47 188.12 71.02 C 176.58 70.65 165.03 70.76 153.50 71.10 L 152.65 70.47 Z" />
</g>
<g id="#104a6dff">
<path fill="#104a6d" opacity="1.00" d=" M 153.50 71.10 C 165.03 70.76 176.58 70.65 188.12 71.02 C 188.17 71.47 188.27 72.38 188.32 72.84 L 187.27 72.59 C 176.34 71.08 165.25 72.80 154.29 71.73 L 153.50 71.10 Z" />
</g>
<g id="#010101ff">
<path fill="#010101" opacity="1.00" d=" M 187.50 131.34 C 186.67 124.16 186.66 116.83 187.50 109.66 C 188.44 116.84 188.44 124.16 187.50 131.34 Z" />
</g>
<g id="#1c2d38cf">
<path fill="#1c2d38" opacity="0.81" d=" M 4.30 133.77 C 5.60 148.26 8.87 162.67 15.08 175.87 C 27.42 203.18 50.34 225.45 77.91 237.17 C 85.89 240.73 94.40 242.82 102.82 245.04 L 102.99 245.65 C 62.76 238.86 27.29 209.74 12.24 171.87 C 8.08 161.43 4.79 150.45 4.05 139.20 C 4.11 137.39 4.24 135.58 4.30 133.77 Z" />
</g>
<g id="#1d2d37cf">
<path fill="#1d2d37" opacity="0.81" d=" M 204.75 217.40 C 229.17 196.57 244.44 165.75 246.70 133.77 C 246.76 135.58 246.89 137.38 246.96 139.19 C 246.10 151.98 242.06 164.40 236.96 176.10 C 223.72 205.70 198.12 229.51 167.58 240.44 C 156.38 244.40 144.64 247.36 132.70 247.48 C 134.55 247.10 136.38 246.63 138.24 246.25 C 160.77 243.86 182.55 235.03 200.37 221.02 C 201.86 219.85 203.32 218.65 204.75 217.40 Z" />
</g>
<g id="#1a99e6ff">
<path fill="#1a99e6" opacity="1.00" d=" M 50.16 187.78 C 54.30 187.73 58.56 187.24 62.60 188.38 C 66.63 190.98 66.42 197.15 63.60 200.60 C 66.78 204.37 65.33 209.53 65.49 214.01 C 63.38 213.98 61.28 213.97 59.18 213.96 C 59.20 210.33 59.19 206.71 59.14 203.08 C 58.62 202.80 57.58 202.24 57.05 201.96 C 56.95 205.97 57.00 209.99 56.99 214.00 C 54.71 213.99 52.43 213.98 50.15 213.96 C 50.20 205.23 50.19 196.51 50.16 187.78 M 57.04 191.99 C 57.00 194.17 56.99 196.34 57.05 198.53 C 59.82 198.12 58.99 195.09 59.32 193.09 C 58.75 192.81 57.61 192.26 57.04 191.99 Z" />
<path fill="#1a99e6" opacity="1.00" d=" M 122.66 187.76 C 124.76 187.73 126.87 187.71 128.97 187.67 C 129.01 196.41 129.00 205.16 128.98 213.90 C 125.77 213.94 122.56 214.09 119.36 214.36 C 117.55 213.90 114.73 213.92 114.24 211.66 C 113.34 206.84 113.64 201.88 113.90 197.02 C 113.86 194.90 115.29 193.27 116.67 191.85 C 118.57 192.11 120.47 192.41 122.37 192.75 C 122.46 191.09 122.55 189.42 122.66 187.76 M 120.33 196.19 C 120.51 201.28 119.70 206.49 121.09 211.46 C 123.67 206.77 121.98 201.16 122.29 196.06 C 121.80 196.09 120.82 196.16 120.33 196.19 Z" />
<path fill="#1a99e6" opacity="1.00" d=" M 133.00 187.74 C 137.94 187.62 142.89 187.59 147.83 187.83 C 147.81 189.48 147.82 191.14 147.87 192.79 C 146.46 192.93 145.05 193.07 143.65 193.23 C 143.87 200.16 143.85 207.10 143.67 214.02 C 141.45 213.99 139.23 213.99 137.01 213.99 C 137.00 207.00 137.00 200.01 137.01 193.02 C 135.66 192.99 134.32 192.95 132.98 192.92 C 133.01 191.19 133.01 189.47 133.00 187.74 Z" />
<path fill="#1a99e6" opacity="1.00" d=" M 161.73 187.68 C 163.86 187.71 165.98 187.74 168.11 187.78 C 168.21 189.36 168.29 190.94 168.37 192.53 C 171.21 192.30 176.07 190.96 176.55 195.08 C 177.19 200.76 176.67 206.49 176.56 212.19 C 174.71 213.18 172.77 214.07 170.66 214.29 C 167.72 214.08 164.78 213.93 161.84 213.88 C 162.03 205.14 161.53 196.41 161.73 187.68 M 168.58 196.60 C 168.02 200.35 168.30 204.19 168.36 207.97 C 168.28 209.26 169.10 210.28 169.74 211.32 C 170.47 206.08 170.31 200.76 169.93 195.50 C 169.59 195.77 168.92 196.32 168.58 196.60 Z" />
<path fill="#1a99e6" opacity="1.00" d=" M 177.52 187.72 C 179.77 187.70 182.01 187.71 184.26 187.73 C 184.44 196.49 183.95 205.25 184.32 214.02 C 182.28 213.94 180.22 214.18 178.21 213.83 C 177.24 212.38 177.40 210.61 177.36 208.96 C 177.50 201.88 177.30 194.80 177.52 187.72 Z" />
<path fill="#1a99e6" opacity="1.00" d=" M 66.78 197.07 C 67.78 190.08 80.17 190.20 81.28 197.08 C 81.87 201.29 81.90 205.64 81.16 209.83 C 80.80 212.12 78.53 213.21 76.89 214.51 C 74.28 214.37 71.67 214.14 69.05 214.21 C 65.50 209.24 66.06 202.80 66.78 197.07 M 73.05 196.14 C 72.97 200.86 73.00 205.58 72.99 210.31 C 73.49 210.31 74.51 210.30 75.01 210.30 C 75.00 205.58 75.03 200.86 74.95 196.14 C 74.47 196.14 73.52 196.14 73.05 196.14 Z" />
<path fill="#1a99e6" opacity="1.00" d=" M 97.87 192.52 C 102.04 192.64 106.22 192.64 110.34 191.93 C 111.46 193.15 112.86 194.37 113.01 196.13 C 113.56 202.02 112.86 207.94 113.28 213.84 C 111.03 213.85 108.78 213.90 106.54 213.93 C 106.17 207.76 108.05 201.07 105.23 195.31 C 104.14 201.46 104.67 207.72 104.67 213.92 C 102.39 213.94 100.12 213.97 97.84 214.01 C 97.83 206.85 97.81 199.69 97.87 192.52 Z" />
<path fill="#1a99e6" opacity="1.00" d=" M 149.68 192.69 C 153.40 191.33 159.84 191.42 160.71 196.34 C 161.63 202.13 161.05 208.03 161.16 213.87 C 158.28 213.96 155.41 214.09 152.54 214.27 C 151.13 214.16 149.73 214.05 148.33 213.92 C 147.47 212.85 146.60 211.77 145.73 210.71 C 146.09 208.70 146.23 206.65 146.76 204.68 C 148.19 203.01 150.27 202.12 152.10 200.96 C 150.01 200.85 147.92 200.74 145.84 200.64 C 146.37 197.76 146.31 193.81 149.68 192.69 M 153.26 196.67 C 152.36 197.58 152.35 199.37 153.25 200.29 C 154.83 200.34 154.85 196.60 153.26 196.67 M 153.32 205.57 C 152.42 206.85 152.43 208.93 153.34 210.22 C 154.77 209.78 154.84 205.92 153.32 205.57 Z" />
<path fill="#1a99e6" opacity="1.00" d=" M 185.34 196.33 C 186.65 191.54 193.12 190.99 196.87 193.06 C 200.65 195.24 199.90 200.12 200.03 203.80 C 197.21 203.79 194.38 203.83 191.56 203.87 C 191.58 206.36 191.71 208.85 192.08 211.32 C 193.57 209.61 193.85 207.36 194.10 205.20 C 196.09 205.19 198.09 205.19 200.10 205.18 C 199.91 207.83 200.23 210.99 197.93 212.87 C 193.96 216.25 185.64 214.75 185.07 208.88 C 184.65 204.72 184.48 200.44 185.34 196.33 M 192.20 196.67 C 191.14 197.24 191.36 199.69 192.80 199.38 C 193.85 198.80 193.63 196.36 192.20 196.67 Z" />
<path fill="#1a99e6" opacity="1.00" d=" M 82.34 192.42 C 84.52 192.46 86.69 192.50 88.87 192.55 C 88.88 198.86 88.39 205.23 89.39 211.50 C 92.00 205.52 90.11 198.79 90.72 192.49 C 92.87 192.48 95.02 192.48 97.17 192.48 C 97.16 199.62 97.19 206.76 97.13 213.90 C 94.21 213.93 91.30 214.01 88.39 214.29 C 87.27 214.35 86.15 214.42 85.04 214.49 C 83.87 213.17 82.20 211.95 82.30 209.98 C 81.97 204.14 82.25 198.27 82.34 192.42 Z" />
</g>
<g id="#020b11ff">
<path fill="#020b11" opacity="1.00" d=" M 57.04 191.99 C 57.61 192.26 58.75 192.81 59.32 193.09 C 58.99 195.09 59.82 198.12 57.05 198.53 C 56.99 196.34 57.00 194.17 57.04 191.99 Z" />
</g>
<g id="#1971a7ff">
<path fill="#1971a7" opacity="1.00" d=" M 132.01 193.94 C 133.34 194.03 134.66 194.13 135.99 194.23 C 135.94 196.37 135.92 198.52 135.84 200.66 C 134.92 205.37 134.86 210.16 134.65 214.93 C 134.60 217.08 133.73 219.68 131.35 220.18 C 125.65 221.45 119.75 220.62 113.98 220.59 C 106.31 220.20 98.65 221.06 90.98 220.62 C 83.45 220.15 75.91 220.79 68.38 220.46 C 63.27 220.19 58.01 221.38 53.02 219.97 C 51.52 218.66 50.60 216.86 49.67 215.16 C 51.02 215.16 52.37 215.17 53.72 215.19 C 54.29 216.00 54.85 216.81 55.41 217.63 C 61.67 216.62 68.04 216.59 74.29 217.71 C 78.53 218.57 82.64 216.24 86.87 217.09 C 90.23 217.62 93.59 218.37 97.01 218.18 C 101.92 218.00 106.76 216.52 111.69 217.11 C 117.62 217.71 123.68 218.91 129.58 217.57 C 131.69 217.19 131.90 214.76 132.10 213.05 C 132.54 206.69 132.26 200.30 132.01 193.94 Z" />
</g>
<g id="#000204ff">
<path fill="#000204" opacity="1.00" d=" M 73.05 196.14 C 73.52 196.14 74.47 196.14 74.95 196.14 C 75.03 200.86 75.00 205.58 75.01 210.30 C 74.51 210.30 73.49 210.31 72.99 210.31 C 73.00 205.58 72.97 200.86 73.05 196.14 Z" />
</g>
<g id="#061e2cff">
<path fill="#061e2c" opacity="1.00" d=" M 153.26 196.67 C 154.85 196.60 154.83 200.34 153.25 200.29 C 152.35 199.37 152.36 197.58 153.26 196.67 Z" />
</g>
<g id="#061a27ff">
<path fill="#061a27" opacity="1.00" d=" M 192.20 196.67 C 193.63 196.36 193.85 198.80 192.80 199.38 C 191.36 199.69 191.14 197.24 192.20 196.67 Z" />
</g>
<g id="#186b9dff">
<path fill="#186b9d" opacity="1.00" d=" M 201.10 195.87 C 202.73 197.68 204.53 199.63 204.80 202.17 C 205.37 207.23 204.71 212.32 204.75 217.40 C 203.32 218.65 201.86 219.85 200.37 221.02 C 194.62 220.16 188.83 219.23 183.00 219.77 C 169.42 220.69 155.81 220.04 142.23 219.57 C 139.85 219.57 138.66 217.14 137.27 215.59 C 137.83 215.53 138.95 215.42 139.51 215.37 C 140.65 216.00 141.77 216.68 142.89 217.36 C 145.12 216.70 147.40 216.01 149.75 216.26 C 152.05 217.16 154.36 218.31 156.90 218.16 C 166.76 217.90 176.64 218.29 186.48 217.42 C 191.50 216.96 197.74 220.26 201.72 215.81 C 204.06 210.38 203.02 204.13 201.47 198.61 C 201.38 197.92 201.19 196.55 201.10 195.87 Z" />
</g>
<g id="#114d72ff">
<path fill="#114d72" opacity="1.00" d=" M 201.47 198.61 C 203.02 204.13 204.06 210.38 201.72 215.81 C 197.74 220.26 191.50 216.96 186.48 217.42 C 176.64 218.29 166.76 217.90 156.90 218.16 C 154.36 218.31 152.05 217.16 149.75 216.26 C 159.34 216.48 169.00 217.20 178.55 216.00 C 185.78 213.69 193.09 217.29 200.32 215.64 C 200.76 209.96 201.37 204.30 201.47 198.61 Z" />
</g>
<g id="#061f2eff">
<path fill="#061f2e" opacity="1.00" d=" M 153.32 205.57 C 154.84 205.92 154.77 209.78 153.34 210.22 C 152.43 208.93 152.42 206.85 153.32 205.57 Z" />
</g>
<g id="#0c3c59ff">
<path fill="#0c3c59" opacity="1.00" d=" M 145.73 210.71 C 146.60 211.77 147.47 212.85 148.33 213.92 C 149.73 214.05 151.13 214.16 152.54 214.27 C 158.50 215.66 164.68 215.48 170.66 214.29 C 172.77 214.07 174.71 213.18 176.56 212.19 C 176.80 213.64 177.50 214.96 178.55 216.00 C 169.00 217.20 159.34 216.48 149.75 216.26 C 147.40 216.01 145.12 216.70 142.89 217.36 C 141.77 216.68 140.65 216.00 139.51 215.37 C 141.27 215.17 143.03 214.94 144.80 214.71 C 145.12 213.38 145.45 212.05 145.73 210.71 Z" />
</g>
</svg>
